<svg width="40" height="40" viewBox="0 0 40 40" fill="none" xmlns="http://www.w3.org/2000/svg">
<path d="M40 15.6855V13.2978L30.4295 17.0833C29.2453 17.5589 28.4883 18.6751 28.4883 19.9466C28.4883 21.2182 29.2551 22.3441 30.4295 22.81L40 26.7023V24.3339L29.4589 20.0728V19.8205L40 15.6758V15.6855Z" fill="#0069F7"/>
<path d="M11.5118 20.0534C11.5118 18.7819 10.745 17.6559 9.5705 17.19L0 13.2978V15.6661L10.5411 19.9272V20.1796L0 24.3145V26.7023L9.5705 22.9168C10.7547 22.4509 11.5118 21.3249 11.5118 20.0534Z" fill="#A6A8AB"/>
<path d="M26.0422 25.9646C25.1396 26.8576 24.8872 28.197 25.3919 29.3618L29.4104 38.8838L31.0799 37.2143L26.644 26.7508L26.8188 26.5761L37.2046 31.0993L38.8935 29.4103L29.4492 25.324C28.2844 24.8192 26.9449 25.0813 26.052 25.9743L26.0422 25.9646Z" fill="#A6A8AB"/>
<path d="M11.7836 14.9382C12.5795 14.9382 13.3657 14.6275 13.9578 14.0355C14.8605 13.1425 15.1128 11.803 14.6081 10.6382L10.5994 1.11626L8.92987 2.78576L13.3657 13.2492L13.191 13.424L2.80514 8.91049L1.11623 10.5994L10.5605 14.6858C10.9585 14.8605 11.3759 14.9382 11.7836 14.9382Z" fill="#A6A8AB"/>
<path d="M20.0534 28.4882C18.7819 28.4882 17.6559 29.255 17.19 30.4295L13.2978 40H15.6661L19.9272 29.4589H20.1796L24.3242 40H26.712L22.9265 30.4295C22.4606 29.2453 21.3347 28.4882 20.0631 28.4882H20.0534Z" fill="#A6A8AB"/>
<path d="M19.9466 11.5118C21.2182 11.5118 22.3441 10.745 22.81 9.5705L26.7023 0H24.3339L20.0728 10.5411H19.8205L15.6855 0H13.2978L17.0833 9.5705C17.5589 10.7547 18.6751 11.5118 19.9466 11.5118Z" fill="#A6A8AB"/>
<path d="M14.0354 26.0422C13.1327 25.1493 11.803 24.8872 10.6382 25.3919L1.11623 29.4007L2.78573 31.0701L13.2492 26.6343L13.4239 26.809L8.90075 37.1949L10.5897 38.8838L14.6761 29.4395C15.1808 28.2747 14.9187 26.9352 14.0257 26.0422H14.0354Z" fill="#A6A8AB"/>
<path d="M25.9646 13.9578C26.5567 14.5499 27.3429 14.8605 28.1388 14.8605C28.5465 14.8605 28.9639 14.7731 29.3618 14.6081L38.8838 10.5897L37.2143 8.92018L26.7508 13.356L26.5761 13.1813L31.0993 2.79545L29.4103 1.10654L25.324 10.5509C24.8192 11.7156 25.0813 13.0551 25.9743 13.9481L25.9646 13.9578Z" fill="#A6A8AB"/>
</svg>
